# xmcd
#
# Track frame offsets:
#	150
#	16105
#	32900
#	55815
#	73275
#	90555
#	107787
#	125562
#	146217
#	162227
#
# Disc length: 2461 seconds
# Revision: 3
# Processed by: cddbd v1.5.2PL0 Copyright (c) Steve Scherf et al.
# Submitted via: dBpowerAMP V12.0
#
DISCID=8c099b0a
DTITLE=本田美奈子 - CANCEL ~ キャンセル [dBP-LITE02-1-FLAC@]
DYEAR=1986
DGENRE=Japanese Pop
TTITLE0=キャンセル
TTITLE1=止まらないRAILWAY
TTITLE2=LOVESONG FOR SOMEBODY
TTITLE3=SHIKASHI
TTITLE4=BOND STREET
TTITLE5=24時間の反抗
TTITLE6=ルーレット
TTITLE7=FEEL LIKE I’M RUNNING
TTITLE8=NO PROBLEM
TTITLE9=涙をF.Oして…
EXTD=
EXTT0=
EXTT1=
EXTT2=
EXTT3=
EXTT4=
EXTT5=
EXTT6=
EXTT7=
EXTT8=
EXTT9=
PLAYORDER=
